<svg width="89" height="29" viewBox="0 0 89 29" fill="none" xmlns="http://www.w3.org/2000/svg">
<path d="M25.16 28H18.26V7.48H6.74V28H-0.16V0.999999H25.16V28ZM53.2883 18.94L56.5283 23.98C54.2483 27.1 50.6683 28.66 45.7883 28.66C41.4283 28.66 37.8883 27.36 35.1683 24.76C32.4883 22.2 31.1483 18.78 31.1483 14.5C31.1483 10.46 32.4683 7.1 35.1083 4.42C37.7483 1.7 41.0883 0.339998 45.1283 0.339998C49.9283 0.339998 53.5483 1.56 55.9883 4L52.7483 9.46C50.9083 7.7 48.6683 6.82 46.0283 6.82C44.0283 6.82 42.2683 7.54 40.7483 8.98C39.2683 10.34 38.5283 12.18 38.5283 14.5C38.5283 16.82 39.2883 18.7 40.8083 20.14C42.4083 21.54 44.2483 22.24 46.3283 22.24C49.0083 22.24 51.3283 21.14 53.2883 18.94ZM78.9266 0.999999H87.6266L77.2466 13.84L88.8866 28H79.8866L69.2066 14.38L78.9266 0.999999ZM68.9666 28H62.0666V0.999999H68.9666V28Z" fill="white"/>
<mask id="mask0_248_171" style="mask-type:alpha" maskUnits="userSpaceOnUse" x="36" y="-1" width="53" height="27">
<path d="M86.9475 0H38.9828C37.9577 0 37.1894 0.938782 37.3922 1.94368L37.8719 4.32141C38.7344 8.59663 40.6382 12.5931 43.4144 15.9567C44.9594 17.8286 46.754 19.4794 48.7481 20.8631L49.3012 21.2469C51.7633 22.9554 54.5298 24.1768 57.4512 24.845C60.7771 25.6059 64.2288 25.6328 67.5662 24.9238L70.2689 24.3497C71.872 24.0092 73.3866 23.3383 74.716 22.3799L76.7071 20.9444L77.3764 20.462C79.5819 18.8719 81.4684 16.8808 82.9373 14.5927C84.8398 11.629 86.1954 8.34806 86.9395 4.90571L87.7776 1.02877C87.892 0.499654 87.4888 0 86.9475 0Z" fill="#D9D9D9" stroke="black"/>
</mask>
<g mask="url(#mask0_248_171)">
<path d="M25.16 28H18.26V7.48H6.74V28H-0.16V0.999999H25.16V28ZM53.2883 18.94L56.5283 23.98C54.2483 27.1 50.6683 28.66 45.7883 28.66C41.4283 28.66 37.8883 27.36 35.1683 24.76C32.4883 22.2 31.1483 18.78 31.1483 14.5C31.1483 10.46 32.4683 7.1 35.1083 4.42C37.7483 1.7 41.0883 0.339998 45.1283 0.339998C49.9283 0.339998 53.5483 1.56 55.9883 4L52.7483 9.46C50.9083 7.7 48.6683 6.82 46.0283 6.82C44.0283 6.82 42.2683 7.54 40.7483 8.98C39.2683 10.34 38.5283 12.18 38.5283 14.5C38.5283 16.82 39.2883 18.7 40.8083 20.14C42.4083 21.54 44.2483 22.24 46.3283 22.24C49.0083 22.24 51.3283 21.14 53.2883 18.94ZM78.9266 0.999999H87.6266L77.2466 13.84L88.8866 28H79.8866L69.2066 14.38L78.9266 0.999999ZM68.9666 28H62.0666V0.999999H68.9666V28Z" fill="#66FCF1"/>
</g>
</svg>
