<svg width="36" height="36" viewBox="0 0 36 36" fill="none" xmlns="http://www.w3.org/2000/svg">
<g clip-path="url(#clip0_206_1761)">
<path d="M25.0434 8.8389L17.6777 16.2046L10.312 8.8389C10.1166 8.64355 9.85167 8.5338 9.5754 8.5338C9.29914 8.5338 9.03418 8.64355 8.83883 8.8389V8.8389C8.64348 9.03425 8.53374 9.2992 8.53374 9.57547C8.53374 9.85174 8.64348 10.1167 8.83883 10.312L16.2045 17.6777L8.83883 25.0434C8.64348 25.2388 8.53374 25.5037 8.53374 25.78C8.53374 26.0563 8.64348 26.3212 8.83883 26.5166V26.5166C9.03418 26.7119 9.29914 26.8217 9.5754 26.8217C9.85167 26.8217 10.1166 26.7119 10.312 26.5166L17.6777 19.1509L25.0434 26.5166C25.2387 26.7119 25.5037 26.8217 25.7799 26.8217C26.0562 26.8217 26.3212 26.7119 26.5165 26.5166C26.7119 26.3212 26.8216 26.0563 26.8216 25.78C26.8216 25.5037 26.7119 25.2388 26.5165 25.0434L19.1508 17.6777L26.5165 10.312C26.7119 10.1167 26.8216 9.85174 26.8216 9.57547C26.8216 9.2992 26.7119 9.03425 26.5165 8.8389C26.3212 8.64355 26.0562 8.5338 25.7799 8.5338C25.5037 8.5338 25.2387 8.64355 25.0434 8.8389Z" fill="black"/>
</g>
<defs>
<clipPath id="clip0_206_1761">
<rect width="25" height="25" fill="white" transform="translate(0 17.6777) rotate(-45)"/>
</clipPath>
</defs>
</svg>
