<svg width="50" height="50" viewBox="0 0 50 50" fill="none" xmlns="http://www.w3.org/2000/svg">
<circle cx="25" cy="25" r="24" stroke="#66FCF1" stroke-width="2"/>
<g clip-path="url(#clip0_174_172)">
<path d="M35.9583 23.4583H25.5417V13.0417C25.5417 12.7654 25.4319 12.5004 25.2366 12.3051C25.0412 12.1097 24.7763 12 24.5 12V12C24.2237 12 23.9588 12.1097 23.7634 12.3051C23.5681 12.5004 23.4583 12.7654 23.4583 13.0417V23.4583H13.0417C12.7654 23.4583 12.5004 23.5681 12.3051 23.7634C12.1097 23.9588 12 24.2237 12 24.5V24.5C12 24.7763 12.1097 25.0412 12.3051 25.2366C12.5004 25.4319 12.7654 25.5417 13.0417 25.5417H23.4583V35.9583C23.4583 36.2346 23.5681 36.4996 23.7634 36.6949C23.9588 36.8903 24.2237 37 24.5 37C24.7763 37 25.0412 36.8903 25.2366 36.6949C25.4319 36.4996 25.5417 36.2346 25.5417 35.9583V25.5417H35.9583C36.2346 25.5417 36.4996 25.4319 36.6949 25.2366C36.8903 25.0412 37 24.7763 37 24.5C37 24.2237 36.8903 23.9588 36.6949 23.7634C36.4996 23.5681 36.2346 23.4583 35.9583 23.4583Z" fill="white"/>
</g>
<defs>
<clipPath id="clip0_174_172">
<rect width="25" height="25" fill="white" transform="translate(12 12)"/>
</clipPath>
</defs>
</svg>
