<svg width="50" height="50" viewBox="0 0 50 50" fill="none" xmlns="http://www.w3.org/2000/svg">
<circle cx="25" cy="25" r="24" stroke="#66FCF1" stroke-width="2"/>
<g clip-path="url(#clip0_178_469)">
<path d="M31.8656 15.6612L24.4999 23.0269L17.1342 15.6612C16.9389 15.4658 16.6739 15.3561 16.3977 15.3561C16.1214 15.3561 15.8565 15.4658 15.6611 15.6612V15.6612C15.4657 15.8565 15.356 16.1215 15.356 16.3977C15.356 16.674 15.4657 16.939 15.6611 17.1343L23.0268 24.5L15.6611 31.8657C15.4657 32.061 15.356 32.326 15.356 32.6023C15.356 32.8785 15.4657 33.1435 15.6611 33.3388V33.3388C15.8565 33.5342 16.1214 33.6439 16.3977 33.6439C16.6739 33.6439 16.9389 33.5342 17.1342 33.3388L24.4999 25.9731L31.8656 33.3388C32.061 33.5342 32.3259 33.6439 32.6022 33.6439C32.8785 33.6439 33.1434 33.5342 33.3388 33.3388C33.5341 33.1435 33.6439 32.8785 33.6439 32.6023C33.6439 32.326 33.5341 32.061 33.3388 31.8657L25.9731 24.5L33.3388 17.1343C33.5341 16.939 33.6439 16.674 33.6439 16.3977C33.6439 16.1215 33.5341 15.8565 33.3388 15.6612C33.1434 15.4658 32.8785 15.3561 32.6022 15.3561C32.3259 15.3561 32.061 15.4658 31.8656 15.6612Z" fill="white"/>
</g>
<defs>
<clipPath id="clip0_178_469">
<rect width="25" height="25" fill="white" transform="translate(6.82227 24.5) rotate(-45)"/>
</clipPath>
</defs>
</svg>
